<?xml version="1.0" standalone="no"?>
<!DOCTYPE svg PUBLIC "-//W3C//DTD SVG 20010904//EN"
 "http://www.w3.org/TR/2001/REC-SVG-20010904/DTD/svg10.dtd">
<svg version="1.0" xmlns="http://www.w3.org/2000/svg"
 width="50.000000pt" height="50.000000pt" viewBox="0 0 50.000000 50.000000"
 preserveAspectRatio="xMidYMid meet">

<g transform="translate(0.000000,50.000000) scale(0.100000,-0.100000)"
fill="#000000" stroke="none">
<path d="M231 441 l-31 -60 67 -20 c80 -24 116 -15 121 32 6 49 -46 84 -86 58
-14 -9 -2 -22 31 -34 25 -9 21 -26 -9 -37 -35 -14 -36 -13 -29 10 6 18 3 20
-18 15 -25 -7 -25 -6 -16 41 5 26 7 49 5 52 -3 2 -18 -23 -35 -57z"/>
<path d="M122 444 c-24 -17 -30 -65 -9 -82 6 -5 50 -20 97 -32 126 -33 157
-60 110 -93 -17 -12 -18 -16 -6 -20 20 -8 46 24 46 56 0 27 -24 49 -65 60
-137 37 -165 49 -165 67 0 14 7 20 24 20 31 0 53 25 30 34 -24 9 -38 7 -62
-10z"/>
<path d="M142 308 c-18 -18 -15 -63 6 -81 9 -8 45 -21 79 -27 72 -14 93 -31
75 -61 -13 -21 -3 -26 16 -7 17 17 15 43 -4 59 -9 8 -46 21 -82 29 -77 18 -99
41 -65 69 22 18 21 31 -2 31 -6 0 -16 -5 -23 -12z"/>
<path d="M192 281 c-10 -28 -9 -28 40 -40 58 -13 68 -9 68 26 0 19 -4 24 -17
19 -9 -4 -19 -3 -22 2 -3 5 -18 12 -33 15 -22 6 -27 3 -36 -22z"/>
<path d="M167 183 c-26 -25 6 -64 68 -83 51 -16 65 -28 45 -40 -8 -5 -11 -12
-7 -16 11 -12 41 22 34 39 -3 8 -32 24 -64 35 -52 17 -58 22 -56 46 2 25 -7
33 -20 19z"/>
<path d="M242 157 c3 -24 21 -27 26 -4 2 8 -4 17 -13 21 -13 4 -16 1 -13 -17z"/>
<path d="M182 73 c3 -18 98 -79 98 -63 0 5 -18 19 -40 31 -22 13 -40 29 -40
36 0 7 -5 13 -11 13 -6 0 -9 -8 -7 -17z"/>
</g>
</svg>
